<svg id="Capa_1" enable-background="new 0 0 512.012 512.012" height="512" viewBox="0 0 512.012 512.012" width="512" xmlns="http://www.w3.org/2000/svg"><g><g><path d="m472.365 369.573c-12.568-18.682-38.72-24.365-57.924-13.2-3.07 1.785-5.885 3.695-8.307 6.299 0 .007.022-.023.021-.023 0-2.227 0-336.782 0-339.864 0-.118 0-.237 0-.355 0-12.368-10.062-22.43-22.43-22.43h-179.632c-4.142 0-7.5 3.358-7.5 7.5s3.358 7.5 7.5 7.5h179.633c4.097 0 7.43 3.333 7.43 7.43v340.215c-.111-2.15-8.261-6.423-9.999-7.358-19.204-10.333-44.173-3.61-56.213 14.286-12.453 18.51-8.341 43.867 3.514 61.581 2.48 3.707 5.475 7.591 8.9 11.545 2.711 3.13 7.448 3.472 10.579.759 3.131-2.712 3.471-7.448.759-10.579-12.584-14.528-23.553-36.729-11.307-54.933 4.558-6.775 11.905-11.232 20.155-12.226 8.274-.995 16.487 1.595 22.544 7.111 8.283 7.543 11.314 17.935 11.336 18.009.897 3.252 3.855 5.506 7.23 5.506 3.374 0 6.333-2.253 7.23-5.506.028-.103 3.063-10.475 11.336-18.009 6.057-5.515 14.271-8.107 22.543-7.111 8.251.995 15.598 5.451 20.156 12.226 3.412 5.072 5.072 11.364 4.937 18.703-.168 9.088-3.098 18.135-8.471 26.162-4.312 6.443-21.121 28.986-56.367 48.578-.84.467-1.886.468-2.727 0-8.475-4.711-16.565-9.996-24.046-15.709-3.292-2.513-7.999-1.883-10.513 1.409s-1.883 7.999 1.409 10.513c7.004 5.349 14.274 9.792 21.711 14.466l5.303 3.013v4.501c0 4.097-3.333 7.43-7.43 7.43h-329.147c-4.097 0-7.43-3.333-7.43-7.43v-406.622h64.857c9.729 0 17.645-7.916 17.645-17.645v-50.315h39.669c4.142 0 7.5-3.358 7.5-7.5s-3.358-7.5-7.5-7.5h-48.044c-1.753 0-3.451.614-4.799 1.736 0 0-82.128 68.417-82.355 68.665-.067.073-.129.148-.192.223-1.123 1.328-1.781 3.088-1.781 4.835v414.122c0 12.368 10.062 22.43 22.43 22.43h329.147c12.368 0 22.43-10.062 22.43-22.43 0 0 0-4.494 0-4.503l6.83-3.848c8.48-5.048 16.67-10.7 24.371-16.921 11.799-9.53 22.997-20.464 31.493-33.157 6.977-10.422 10.781-22.258 11.003-34.228.195-10.473-2.324-19.675-7.487-27.351zm-357.714-346.178v41.92c0 1.458-1.187 2.645-2.645 2.645h-51.457z"/><path d="m264.166 90.891h-90.027c-4.142 0-7.5 3.358-7.5 7.5s3.358 7.5 7.5 7.5h90.027c4.142 0 7.5-3.358 7.5-7.5s-3.358-7.5-7.5-7.5z"/><path d="m303.677 120.305h-169.05c-4.142 0-7.5 3.358-7.5 7.5s3.358 7.5 7.5 7.5h169.05c4.142 0 7.5-3.358 7.5-7.5s-3.358-7.5-7.5-7.5z"/><path d="m113.142 176.831c-13.536 0-24.547 11.012-24.547 24.548s11.012 24.548 24.547 24.548 24.548-11.012 24.548-24.548-11.013-24.548-24.548-24.548zm0 34.096c-5.265 0-9.547-4.283-9.547-9.548s4.283-9.548 9.547-9.548 9.548 4.283 9.548 9.548-4.284 9.548-9.548 9.548z"/><path d="m342.21 179.172h-178.682c-4.142 0-7.5 3.358-7.5 7.5s3.358 7.5 7.5 7.5h178.682c4.142 0 7.5-3.358 7.5-7.5s-3.358-7.5-7.5-7.5z"/><path d="m163.528 223.586h141.171c4.142 0 7.5-3.358 7.5-7.5s-3.358-7.5-7.5-7.5h-141.171c-4.142 0-7.5 3.358-7.5 7.5s3.358 7.5 7.5 7.5z"/><path d="m113.142 257.267c-13.536 0-24.547 11.012-24.547 24.547s11.012 24.548 24.547 24.548 24.548-11.012 24.548-24.548-11.013-24.547-24.548-24.547zm0 34.095c-5.265 0-9.547-4.283-9.547-9.548s4.283-9.547 9.547-9.547 9.548 4.283 9.548 9.547-4.284 9.548-9.548 9.548z"/><path d="m349.71 267.108c0-4.142-3.358-7.5-7.5-7.5h-178.682c-4.142 0-7.5 3.358-7.5 7.5s3.358 7.5 7.5 7.5h178.682c4.142 0 7.5-3.358 7.5-7.5z"/><path d="m312.199 296.521c0-4.142-3.358-7.5-7.5-7.5h-141.171c-4.142 0-7.5 3.358-7.5 7.5s3.358 7.5 7.5 7.5h141.171c4.142 0 7.5-3.357 7.5-7.5z"/><path d="m113.142 337.703c-13.536 0-24.547 11.012-24.547 24.548s11.012 24.548 24.547 24.548 24.548-11.012 24.548-24.548-11.013-24.548-24.548-24.548zm5.698 32.41c-8.034 4.88-16.411-1.622-15.111-9.483.654-3.952 3.841-7.14 7.794-7.794 7.861-1.299 14.362 7.079 9.481 15.113-.535.88-1.284 1.629-2.164 2.164z"/><path d="m298.673 347.543c0-4.142-3.358-7.5-7.5-7.5h-127.645c-4.142 0-7.5 3.358-7.5 7.5s3.358 7.5 7.5 7.5h127.646c4.142 0 7.499-3.357 7.499-7.5z"/><path d="m163.528 369.458c-4.142 0-7.5 3.358-7.5 7.5s3.358 7.5 7.5 7.5h104.639c4.142 0 7.5-3.358 7.5-7.5s-3.358-7.5-7.5-7.5z"/></g></g></svg>